<svg viewBox="0 0 1760 990" version="1.1" xmlns="http://www.w3.org/2000/svg">
<defs>
<clipPath id="c0_7"><path d="M-.2 990.3V-.2H1760.3V990.3Z"/></clipPath>
<clipPath id="c1_7"><path d="M114.3 874.2V248.7H1645.7V874.2Z"/></clipPath>
<clipPath id="c2_7"><path d="M115.8 458.7V250.2H1644.2V458.7Z"/></clipPath>
<clipPath id="c3_7"><path d="M115.8 666.4V456.5H1644.2V666.4Z"/></clipPath>
<clipPath id="c4_7"><path d="M115.8 872.7V664.3H1644.2V872.7Z"/></clipPath>
<style>
.g0_7{fill:#FFF;}
.g1_7{fill:#00002E;}
.g2_7{fill:none;stroke:#FFF;stroke-width:0.909;stroke-linejoin:round;}
.g3_7{fill:#000;}
</style>
</defs>
<g clip-path="url(#c0_7)">
<path fill-rule="evenodd" d="M0 0H1760V990H0V0Z" class="g0_7"/>
<image preserveAspectRatio="none" x="0" y="0" width="1760" height="990" href="img/1.jpg"/>
<g opacity="0.75">
<path fill-rule="evenodd" d="M880 989.9H0V0H1759.9V989.9H880Z" class="g1_7"/>
</g>
<image preserveAspectRatio="none" x="1545" y="932" width="207" height="50" href="img/2.png"/>
</g>
<g clip-path="url(#c1_7)" opacity="0.24">
<path d="M116.5 291.2c0-7.1 1.9-14.1 5.4-20.2c3.6-6.1 8.7-11.2 14.8-14.8c6.1-3.5 13.1-5.4 20.2-5.4H1603c7.1 0 14.1 1.9 20.2 5.4c6.1 3.6 11.3 8.7 14.8 14.8c3.6 6.2 5.4 13.1 5.4 20.2V831.7c0 7.1-1.8 14.1-5.4 20.2c-3.5 6.1-8.7 11.3-14.8 14.8c-6.1 3.6-13.1 5.4-20.2 5.4H156.9c-7.1 0-14.1-1.8-20.2-5.4c-6.2-3.5-11.3-8.7-14.8-14.8c-3.6-6.1-5.4-13.1-5.4-20.2V291.2Z" class="g2_7"/>
</g>
<g clip-path="url(#c2_7)" opacity="0.04">
<path fill-rule="evenodd" d="M880 458.2H117.4V251.8H1642.5V458.2H880Z" class="g0_7"/>
</g>
<g clip-path="url(#c3_7)" opacity="0.04">
<path fill-rule="evenodd" d="M880 664.7H117.4V458.2H1642.5V664.7H880Z" class="g3_7"/>
</g>
<g clip-path="url(#c4_7)" opacity="0.04">
<path fill-rule="evenodd" d="M880 871.2H117.4V664.7H1642.5V871.2H880Z" class="g0_7"/>
</g>
</svg>