<svg viewBox="0 0 1760 990" version="1.1" xmlns="http://www.w3.org/2000/svg">
<defs>
<clipPath id="c0_5"><path d="M-.2 990.3V-.2H1760.3V990.3Z"/></clipPath>
<style>
.g0_5{fill:#FFF;}
.g1_5{fill:#00002E;}
.g2_5{fill:none;stroke:#F2B42D;stroke-width:3.681;stroke-linejoin:round;}
.g3_5{fill:none;stroke:#D7425E;stroke-width:3.681;stroke-linejoin:round;}
.g4_5{fill:none;stroke:#DD785E;stroke-width:3.681;stroke-linejoin:round;}
</style>
</defs>
<g clip-path="url(#c0_5)">
<path fill-rule="evenodd" d="M0 0H1760V990H0V0Z" class="g0_5"/>
<image preserveAspectRatio="none" x="0" y="0" width="1760" height="990" href="img/1.jpg"/>
<g opacity="0.75">
<path fill-rule="evenodd" d="M880 989.9H0V0H1759.9V989.9H880Z" class="g1_5"/>
</g>
<image preserveAspectRatio="none" x="1545" y="932" width="207" height="50" href="img/2.png"/>
</g>
<path fill-rule="evenodd" d="M116.5 511.3c0-5.9 1.6-11.6 4.5-16.7c2.9-5.1 7.1-9.3 12.3-12.2c5-3 10.8-4.5 16.7-4.5h-.1c5.9 0 11.6 1.6 16.7 4.5c5.1 2.9 9.3 7.1 12.3 12.2c2.9 5.1 4.5 10.8 4.5 16.7c0 5.8-1.6 11.6-4.5 16.7c-2.9 5.1-7.1 9.3-12.3 12.2c-5 3-10.8 4.5-16.6 4.5h-.1c-5.8 0-11.6-1.5-16.7-4.4c-5.1-3-9.3-7.2-12.2-12.3c-2.9-5.1-4.5-10.8-4.5-16.7Z" class="g1_5"/>
<path d="M116.5 511.3v0c0-5.9 1.6-11.6 4.5-16.7c2.9-5.1 7.1-9.3 12.3-12.2c5-3 10.8-4.5 16.7-4.5h-.1c5.9 0 11.6 1.6 16.7 4.5c5.1 2.9 9.3 7.1 12.3 12.2c2.9 5.1 4.5 10.8 4.5 16.7c0 5.8-1.6 11.6-4.5 16.7c-2.9 5.1-7.1 9.3-12.3 12.2c-5 3-10.8 4.5-16.6 4.5h-.1c-5.8 0-11.6-1.5-16.7-4.4c-5.1-3-9.3-7.2-12.2-12.3c-2.9-5.1-4.5-10.8-4.5-16.7Z" class="g2_5"/>
<path fill-rule="evenodd" d="M635.4 511.3c0-5.9 1.6-11.6 4.5-16.7c2.9-5.1 7.1-9.3 12.2-12.2c5.1-3 10.8-4.5 16.7-4.5c5.8 0 11.6 1.6 16.7 4.5c5.1 2.9 9.3 7.1 12.2 12.2c3 5.1 4.5 10.8 4.5 16.7c0 5.8-1.5 11.6-4.4 16.7c-3 5.1-7.2 9.3-12.3 12.2c-5.1 3-10.8 4.5-16.7 4.5c-5.9 0-11.6-1.5-16.7-4.4c-5.1-3-9.3-7.2-12.2-12.3c-3-5.1-4.5-10.8-4.5-16.7Z" class="g1_5"/>
<path d="M635.4 511.3v0c0-5.9 1.6-11.6 4.5-16.7c2.9-5.1 7.1-9.3 12.2-12.2c5.1-3 10.8-4.5 16.7-4.5c5.8 0 11.6 1.6 16.7 4.5c5.1 2.9 9.3 7.1 12.2 12.2c3 5.1 4.5 10.8 4.5 16.7c0 5.8-1.5 11.6-4.4 16.7c-3 5.1-7.2 9.3-12.3 12.2c-5.1 3-10.8 4.5-16.7 4.5c-5.9 0-11.6-1.5-16.7-4.4c-5.1-3-9.3-7.2-12.2-12.3c-3-5.1-4.5-10.8-4.5-16.7Z" class="g3_5"/>
<path fill-rule="evenodd" d="M1154.3 511.3c0-5.9 1.5-11.6 4.4-16.7c3-5.1 7.2-9.3 12.3-12.2c5-3 10.8-4.5 16.7-4.5c5.8 0 11.6 1.6 16.7 4.5c5 2.9 9.2 7.1 12.2 12.2c2.9 5.1 4.5 10.8 4.5 16.7c0 5.8-1.6 11.6-4.5 16.7c-2.9 5.1-7.1 9.3-12.2 12.2c-5.1 3-10.9 4.5-16.7 4.5c-5.9 0-11.7-1.5-16.8-4.4c-5-3-9.2-7.2-12.2-12.3c-2.9-5.1-4.4-10.8-4.4-16.7Z" class="g1_5"/>
<path d="M1154.3 511.3v0c0-5.9 1.5-11.6 4.4-16.7c3-5.1 7.2-9.3 12.3-12.2c5-3 10.8-4.5 16.7-4.5c5.8 0 11.6 1.6 16.7 4.5c5 2.9 9.2 7.1 12.2 12.2c2.9 5.1 4.5 10.8 4.5 16.7c0 5.8-1.6 11.6-4.5 16.7c-2.9 5.1-7.1 9.3-12.2 12.2c-5.1 3-10.9 4.5-16.7 4.5c-5.9 0-11.7-1.5-16.8-4.4c-5-3-9.2-7.2-12.2-12.3c-2.9-5.1-4.4-10.8-4.4-16.7Z" class="g4_5"/>
</svg>